<mxfile host="Electron" agent="Mozilla/5.0 (Windows NT 10.0; Win64; x64) AppleWebKit/537.36 (KHTML, like Gecko) draw.io/28.2.8 Chrome/140.0.7339.240 Electron/38.4.0 Safari/537.36" version="28.2.8">
  <diagram name="Page-1" id="c5ee5nKb05gVSxcrlC52">
    <mxGraphModel dx="2563" dy="1290" grid="0" gridSize="10" guides="1" tooltips="1" connect="1" arrows="1" fold="1" page="1" pageScale="1" pageWidth="850" pageHeight="1100" math="0" shadow="0">
      <root>
        <mxCell id="0" />
        <mxCell id="1" parent="0" />
        <mxCell id="pUdPXJo74rfz9XQYsabY-1" value="Admin" style="swimlane;fontStyle=2;align=center;verticalAlign=top;childLayout=stackLayout;horizontal=1;startSize=26;horizontalStack=0;resizeParent=1;resizeLast=0;collapsible=1;marginBottom=0;rounded=0;shadow=0;strokeWidth=1;" parent="1" vertex="1">
          <mxGeometry x="197" y="275" width="389" height="259" as="geometry">
            <mxRectangle x="230" y="140" width="160" height="26" as="alternateBounds" />
          </mxGeometry>
        </mxCell>
        <mxCell id="pUdPXJo74rfz9XQYsabY-2" value="- id: String" style="text;align=left;verticalAlign=top;spacingLeft=4;spacingRight=4;overflow=hidden;rotatable=0;points=[[0,0.5],[1,0.5]];portConstraint=eastwest;" parent="pUdPXJo74rfz9XQYsabY-1" vertex="1">
          <mxGeometry y="26" width="389" height="26" as="geometry" />
        </mxCell>
        <mxCell id="pUdPXJo74rfz9XQYsabY-21" value="- nama: String" style="text;align=left;verticalAlign=top;spacingLeft=4;spacingRight=4;overflow=hidden;rotatable=0;points=[[0,0.5],[1,0.5]];portConstraint=eastwest;" parent="pUdPXJo74rfz9XQYsabY-1" vertex="1">
          <mxGeometry y="52" width="389" height="26" as="geometry" />
        </mxCell>
        <mxCell id="pUdPXJo74rfz9XQYsabY-39" value="- username: String" style="text;align=left;verticalAlign=top;spacingLeft=4;spacingRight=4;overflow=hidden;rotatable=0;points=[[0,0.5],[1,0.5]];portConstraint=eastwest;" parent="pUdPXJo74rfz9XQYsabY-1" vertex="1">
          <mxGeometry y="78" width="389" height="26" as="geometry" />
        </mxCell>
        <mxCell id="pUdPXJo74rfz9XQYsabY-40" value="- password: String" style="text;align=left;verticalAlign=top;spacingLeft=4;spacingRight=4;overflow=hidden;rotatable=0;points=[[0,0.5],[1,0.5]];portConstraint=eastwest;" parent="pUdPXJo74rfz9XQYsabY-1" vertex="1">
          <mxGeometry y="104" width="389" height="26" as="geometry" />
        </mxCell>
        <mxCell id="pUdPXJo74rfz9XQYsabY-4" value="" style="line;html=1;strokeWidth=1;align=left;verticalAlign=middle;spacingTop=-1;spacingLeft=3;spacingRight=3;rotatable=0;labelPosition=right;points=[];portConstraint=eastwest;" parent="pUdPXJo74rfz9XQYsabY-1" vertex="1">
          <mxGeometry y="130" width="389" height="8" as="geometry" />
        </mxCell>
        <mxCell id="pUdPXJo74rfz9XQYsabY-5" value="+ admin(id: String, nama: String, username: String, password: String)  " style="text;align=left;verticalAlign=top;spacingLeft=4;spacingRight=4;overflow=hidden;rotatable=0;points=[[0,0.5],[1,0.5]];portConstraint=eastwest;" parent="pUdPXJo74rfz9XQYsabY-1" vertex="1">
          <mxGeometry y="138" width="389" height="26" as="geometry" />
        </mxCell>
        <mxCell id="pUdPXJo74rfz9XQYsabY-15" value="+ login(user: String, pass: String): Boolean" style="text;align=left;verticalAlign=top;spacingLeft=4;spacingRight=4;overflow=hidden;rotatable=0;points=[[0,0.5],[1,0.5]];portConstraint=eastwest;" parent="pUdPXJo74rfz9XQYsabY-1" vertex="1">
          <mxGeometry y="164" width="389" height="26" as="geometry" />
        </mxCell>
        <mxCell id="pUdPXJo74rfz9XQYsabY-18" value="+ tampilkanData(): void " style="text;align=left;verticalAlign=top;spacingLeft=4;spacingRight=4;overflow=hidden;rotatable=0;points=[[0,0.5],[1,0.5]];portConstraint=eastwest;" parent="pUdPXJo74rfz9XQYsabY-1" vertex="1">
          <mxGeometry y="190" width="389" height="26" as="geometry" />
        </mxCell>
        <mxCell id="pUdPXJo74rfz9XQYsabY-16" value="+ getNama(): String " style="text;align=left;verticalAlign=top;spacingLeft=4;spacingRight=4;overflow=hidden;rotatable=0;points=[[0,0.5],[1,0.5]];portConstraint=eastwest;" parent="pUdPXJo74rfz9XQYsabY-1" vertex="1">
          <mxGeometry y="216" width="389" height="26" as="geometry" />
        </mxCell>
        <mxCell id="pUdPXJo74rfz9XQYsabY-23" value="Akun" style="swimlane;fontStyle=2;align=center;verticalAlign=top;childLayout=stackLayout;horizontal=1;startSize=26;horizontalStack=0;resizeParent=1;resizeLast=0;collapsible=1;marginBottom=0;rounded=0;shadow=0;strokeWidth=1;" parent="1" vertex="1">
          <mxGeometry x="878" y="566" width="176" height="320" as="geometry">
            <mxRectangle x="230" y="140" width="160" height="26" as="alternateBounds" />
          </mxGeometry>
        </mxCell>
        <mxCell id="pUdPXJo74rfz9XQYsabY-24" value="- id: String" style="text;align=left;verticalAlign=top;spacingLeft=4;spacingRight=4;overflow=hidden;rotatable=0;points=[[0,0.5],[1,0.5]];portConstraint=eastwest;" parent="pUdPXJo74rfz9XQYsabY-23" vertex="1">
          <mxGeometry y="26" width="176" height="26" as="geometry" />
        </mxCell>
        <mxCell id="pUdPXJo74rfz9XQYsabY-25" value="- namaGame: String" style="text;align=left;verticalAlign=top;spacingLeft=4;spacingRight=4;overflow=hidden;rotatable=0;points=[[0,0.5],[1,0.5]];portConstraint=eastwest;" parent="pUdPXJo74rfz9XQYsabY-23" vertex="1">
          <mxGeometry y="52" width="176" height="26" as="geometry" />
        </mxCell>
        <mxCell id="pUdPXJo74rfz9XQYsabY-26" value="- harga: int " style="text;align=left;verticalAlign=top;spacingLeft=4;spacingRight=4;overflow=hidden;rotatable=0;points=[[0,0.5],[1,0.5]];portConstraint=eastwest;" parent="pUdPXJo74rfz9XQYsabY-23" vertex="1">
          <mxGeometry y="78" width="176" height="26" as="geometry" />
        </mxCell>
        <mxCell id="pUdPXJo74rfz9XQYsabY-27" value="- stok: int " style="text;align=left;verticalAlign=top;spacingLeft=4;spacingRight=4;overflow=hidden;rotatable=0;points=[[0,0.5],[1,0.5]];portConstraint=eastwest;" parent="pUdPXJo74rfz9XQYsabY-23" vertex="1">
          <mxGeometry y="104" width="176" height="26" as="geometry" />
        </mxCell>
        <mxCell id="pUdPXJo74rfz9XQYsabY-28" value="" style="line;html=1;strokeWidth=1;align=left;verticalAlign=middle;spacingTop=-1;spacingLeft=3;spacingRight=3;rotatable=0;labelPosition=right;points=[];portConstraint=eastwest;" parent="pUdPXJo74rfz9XQYsabY-23" vertex="1">
          <mxGeometry y="130" width="176" height="8" as="geometry" />
        </mxCell>
        <mxCell id="pUdPXJo74rfz9XQYsabY-29" value="+ Akun(id: String, harga: int) " style="text;align=left;verticalAlign=top;spacingLeft=4;spacingRight=4;overflow=hidden;rotatable=0;points=[[0,0.5],[1,0.5]];portConstraint=eastwest;" parent="pUdPXJo74rfz9XQYsabY-23" vertex="1">
          <mxGeometry y="138" width="176" height="26" as="geometry" />
        </mxCell>
        <mxCell id="pUdPXJo74rfz9XQYsabY-30" value="+ getId(): String " style="text;align=left;verticalAlign=top;spacingLeft=4;spacingRight=4;overflow=hidden;rotatable=0;points=[[0,0.5],[1,0.5]];portConstraint=eastwest;" parent="pUdPXJo74rfz9XQYsabY-23" vertex="1">
          <mxGeometry y="164" width="176" height="26" as="geometry" />
        </mxCell>
        <mxCell id="pUdPXJo74rfz9XQYsabY-31" value="+ getNamagame(): String " style="text;align=left;verticalAlign=top;spacingLeft=4;spacingRight=4;overflow=hidden;rotatable=0;points=[[0,0.5],[1,0.5]];portConstraint=eastwest;" parent="pUdPXJo74rfz9XQYsabY-23" vertex="1">
          <mxGeometry y="190" width="176" height="26" as="geometry" />
        </mxCell>
        <mxCell id="pUdPXJo74rfz9XQYsabY-32" value="+ getHarga(): int " style="text;align=left;verticalAlign=top;spacingLeft=4;spacingRight=4;overflow=hidden;rotatable=0;points=[[0,0.5],[1,0.5]];portConstraint=eastwest;" parent="pUdPXJo74rfz9XQYsabY-23" vertex="1">
          <mxGeometry y="216" width="176" height="26" as="geometry" />
        </mxCell>
        <mxCell id="pUdPXJo74rfz9XQYsabY-33" value="+ getStok(): int " style="text;align=left;verticalAlign=top;spacingLeft=4;spacingRight=4;overflow=hidden;rotatable=0;points=[[0,0.5],[1,0.5]];portConstraint=eastwest;" parent="pUdPXJo74rfz9XQYsabY-23" vertex="1">
          <mxGeometry y="242" width="176" height="26" as="geometry" />
        </mxCell>
        <mxCell id="pUdPXJo74rfz9XQYsabY-34" value="+ getKurangistok(): void " style="text;align=left;verticalAlign=top;spacingLeft=4;spacingRight=4;overflow=hidden;rotatable=0;points=[[0,0.5],[1,0.5]];portConstraint=eastwest;" parent="pUdPXJo74rfz9XQYsabY-23" vertex="1">
          <mxGeometry y="268" width="176" height="26" as="geometry" />
        </mxCell>
        <mxCell id="pUdPXJo74rfz9XQYsabY-35" value="+ toString(): String" style="text;align=left;verticalAlign=top;spacingLeft=4;spacingRight=4;overflow=hidden;rotatable=0;points=[[0,0.5],[1,0.5]];portConstraint=eastwest;" parent="pUdPXJo74rfz9XQYsabY-23" vertex="1">
          <mxGeometry y="294" width="176" height="26" as="geometry" />
        </mxCell>
        <mxCell id="pUdPXJo74rfz9XQYsabY-41" value="Aplikasikasir" style="swimlane;fontStyle=2;align=center;verticalAlign=top;childLayout=stackLayout;horizontal=1;startSize=26;horizontalStack=0;resizeParent=1;resizeLast=0;collapsible=1;marginBottom=0;rounded=0;shadow=0;strokeWidth=1;" parent="1" vertex="1">
          <mxGeometry x="716" y="178" width="389" height="294" as="geometry">
            <mxRectangle x="230" y="140" width="160" height="26" as="alternateBounds" />
          </mxGeometry>
        </mxCell>
        <mxCell id="pUdPXJo74rfz9XQYsabY-42" value="- daftarAdmin: ArrayList&lt;Admin&gt; " style="text;align=left;verticalAlign=top;spacingLeft=4;spacingRight=4;overflow=hidden;rotatable=0;points=[[0,0.5],[1,0.5]];portConstraint=eastwest;" parent="pUdPXJo74rfz9XQYsabY-41" vertex="1">
          <mxGeometry y="26" width="389" height="26" as="geometry" />
        </mxCell>
        <mxCell id="pUdPXJo74rfz9XQYsabY-43" value="- daftarAkun: ArrayList&lt;Akun&gt; daftarAkun" style="text;align=left;verticalAlign=top;spacingLeft=4;spacingRight=4;overflow=hidden;rotatable=0;points=[[0,0.5],[1,0.5]];portConstraint=eastwest;" parent="pUdPXJo74rfz9XQYsabY-41" vertex="1">
          <mxGeometry y="52" width="389" height="26" as="geometry" />
        </mxCell>
        <mxCell id="pUdPXJo74rfz9XQYsabY-44" value="- riwayatPembelian: ArrayList&lt;String&gt; " style="text;align=left;verticalAlign=top;spacingLeft=4;spacingRight=4;overflow=hidden;rotatable=0;points=[[0,0.5],[1,0.5]];portConstraint=eastwest;" parent="pUdPXJo74rfz9XQYsabY-41" vertex="1">
          <mxGeometry y="78" width="389" height="26" as="geometry" />
        </mxCell>
        <mxCell id="pUdPXJo74rfz9XQYsabY-45" value="- adminAktif: Admin" style="text;align=left;verticalAlign=top;spacingLeft=4;spacingRight=4;overflow=hidden;rotatable=0;points=[[0,0.5],[1,0.5]];portConstraint=eastwest;" parent="pUdPXJo74rfz9XQYsabY-41" vertex="1">
          <mxGeometry y="104" width="389" height="26" as="geometry" />
        </mxCell>
        <mxCell id="pUdPXJo74rfz9XQYsabY-46" value="" style="line;html=1;strokeWidth=1;align=left;verticalAlign=middle;spacingTop=-1;spacingLeft=3;spacingRight=3;rotatable=0;labelPosition=right;points=[];portConstraint=eastwest;" parent="pUdPXJo74rfz9XQYsabY-41" vertex="1">
          <mxGeometry y="130" width="389" height="8" as="geometry" />
        </mxCell>
        <mxCell id="pUdPXJo74rfz9XQYsabY-49" value="+ inisialisasiData(): void " style="text;align=left;verticalAlign=top;spacingLeft=4;spacingRight=4;overflow=hidden;rotatable=0;points=[[0,0.5],[1,0.5]];portConstraint=eastwest;" parent="pUdPXJo74rfz9XQYsabY-41" vertex="1">
          <mxGeometry y="138" width="389" height="26" as="geometry" />
        </mxCell>
        <mxCell id="pUdPXJo74rfz9XQYsabY-48" value="+ loginAdmin(String username, String password): Boolean" style="text;align=left;verticalAlign=top;spacingLeft=4;spacingRight=4;overflow=hidden;rotatable=0;points=[[0,0.5],[1,0.5]];portConstraint=eastwest;" parent="pUdPXJo74rfz9XQYsabY-41" vertex="1">
          <mxGeometry y="164" width="389" height="26" as="geometry" />
        </mxCell>
        <mxCell id="pUdPXJo74rfz9XQYsabY-50" value="+ mengelolaAkun(Scanner: scanner): void " style="text;align=left;verticalAlign=top;spacingLeft=4;spacingRight=4;overflow=hidden;rotatable=0;points=[[0,0.5],[1,0.5]];portConstraint=eastwest;" parent="pUdPXJo74rfz9XQYsabY-41" vertex="1">
          <mxGeometry y="190" width="389" height="26" as="geometry" />
        </mxCell>
        <mxCell id="pUdPXJo74rfz9XQYsabY-51" value="+ tampilkanDaftarakun(): void " style="text;align=left;verticalAlign=top;spacingLeft=4;spacingRight=4;overflow=hidden;rotatable=0;points=[[0,0.5],[1,0.5]];portConstraint=eastwest;" parent="pUdPXJo74rfz9XQYsabY-41" vertex="1">
          <mxGeometry y="216" width="389" height="26" as="geometry" />
        </mxCell>
        <mxCell id="pUdPXJo74rfz9XQYsabY-52" value="+ tampilkanRiwayat(): void " style="text;align=left;verticalAlign=top;spacingLeft=4;spacingRight=4;overflow=hidden;rotatable=0;points=[[0,0.5],[1,0.5]];portConstraint=eastwest;" parent="pUdPXJo74rfz9XQYsabY-41" vertex="1">
          <mxGeometry y="242" width="389" height="26" as="geometry" />
        </mxCell>
        <mxCell id="pUdPXJo74rfz9XQYsabY-53" value="+ mulaiPembelian(Scanner: scanner): void " style="text;align=left;verticalAlign=top;spacingLeft=4;spacingRight=4;overflow=hidden;rotatable=0;points=[[0,0.5],[1,0.5]];portConstraint=eastwest;" parent="pUdPXJo74rfz9XQYsabY-41" vertex="1">
          <mxGeometry y="268" width="389" height="26" as="geometry" />
        </mxCell>
        <mxCell id="pUdPXJo74rfz9XQYsabY-66" value="Buyer" style="swimlane;fontStyle=2;align=center;verticalAlign=top;childLayout=stackLayout;horizontal=1;startSize=26;horizontalStack=0;resizeParent=1;resizeLast=0;collapsible=1;marginBottom=0;rounded=0;shadow=0;strokeWidth=1;" parent="1" vertex="1">
          <mxGeometry x="1244" y="341" width="389" height="231" as="geometry">
            <mxRectangle x="230" y="140" width="160" height="26" as="alternateBounds" />
          </mxGeometry>
        </mxCell>
        <mxCell id="pUdPXJo74rfz9XQYsabY-68" value="- nama: String" style="text;align=left;verticalAlign=top;spacingLeft=4;spacingRight=4;overflow=hidden;rotatable=0;points=[[0,0.5],[1,0.5]];portConstraint=eastwest;" parent="pUdPXJo74rfz9XQYsabY-66" vertex="1">
          <mxGeometry y="26" width="389" height="26" as="geometry" />
        </mxCell>
        <mxCell id="pUdPXJo74rfz9XQYsabY-70" value="- daftarBelanja: ArrayList&lt;Akun&gt;" style="text;align=left;verticalAlign=top;spacingLeft=4;spacingRight=4;overflow=hidden;rotatable=0;points=[[0,0.5],[1,0.5]];portConstraint=eastwest;" parent="pUdPXJo74rfz9XQYsabY-66" vertex="1">
          <mxGeometry y="52" width="389" height="26" as="geometry" />
        </mxCell>
        <mxCell id="pUdPXJo74rfz9XQYsabY-67" value="- total: int" style="text;align=left;verticalAlign=top;spacingLeft=4;spacingRight=4;overflow=hidden;rotatable=0;points=[[0,0.5],[1,0.5]];portConstraint=eastwest;" parent="pUdPXJo74rfz9XQYsabY-66" vertex="1">
          <mxGeometry y="78" width="389" height="26" as="geometry" />
        </mxCell>
        <mxCell id="pUdPXJo74rfz9XQYsabY-71" value="" style="line;html=1;strokeWidth=1;align=left;verticalAlign=middle;spacingTop=-1;spacingLeft=3;spacingRight=3;rotatable=0;labelPosition=right;points=[];portConstraint=eastwest;" parent="pUdPXJo74rfz9XQYsabY-66" vertex="1">
          <mxGeometry y="104" width="389" height="8" as="geometry" />
        </mxCell>
        <mxCell id="pUdPXJo74rfz9XQYsabY-72" value="+ buyer(nama: String) " style="text;align=left;verticalAlign=top;spacingLeft=4;spacingRight=4;overflow=hidden;rotatable=0;points=[[0,0.5],[1,0.5]];portConstraint=eastwest;" parent="pUdPXJo74rfz9XQYsabY-66" vertex="1">
          <mxGeometry y="112" width="389" height="26" as="geometry" />
        </mxCell>
        <mxCell id="pUdPXJo74rfz9XQYsabY-73" value="+ tambahAkun(akun: Akun): void     " style="text;align=left;verticalAlign=top;spacingLeft=4;spacingRight=4;overflow=hidden;rotatable=0;points=[[0,0.5],[1,0.5]];portConstraint=eastwest;" parent="pUdPXJo74rfz9XQYsabY-66" vertex="1">
          <mxGeometry y="138" width="389" height="26" as="geometry" />
        </mxCell>
        <mxCell id="pUdPXJo74rfz9XQYsabY-74" value="+ tampilkanBelanja(): void " style="text;align=left;verticalAlign=top;spacingLeft=4;spacingRight=4;overflow=hidden;rotatable=0;points=[[0,0.5],[1,0.5]];portConstraint=eastwest;" parent="pUdPXJo74rfz9XQYsabY-66" vertex="1">
          <mxGeometry y="164" width="389" height="26" as="geometry" />
        </mxCell>
        <mxCell id="pUdPXJo74rfz9XQYsabY-75" value="+ getTotal(): int   " style="text;align=left;verticalAlign=top;spacingLeft=4;spacingRight=4;overflow=hidden;rotatable=0;points=[[0,0.5],[1,0.5]];portConstraint=eastwest;" parent="pUdPXJo74rfz9XQYsabY-66" vertex="1">
          <mxGeometry y="190" width="389" height="26" as="geometry" />
        </mxCell>
        <mxCell id="pY9i6ke1_NOmjS76wdr6-1" value="Main" style="swimlane;fontStyle=2;align=center;verticalAlign=top;childLayout=stackLayout;horizontal=1;startSize=26;horizontalStack=0;resizeParent=1;resizeLast=0;collapsible=1;marginBottom=0;rounded=0;shadow=0;strokeWidth=1;" vertex="1" parent="1">
          <mxGeometry x="781" y="36" width="240" height="91" as="geometry">
            <mxRectangle x="230" y="140" width="160" height="26" as="alternateBounds" />
          </mxGeometry>
        </mxCell>
        <mxCell id="pY9i6ke1_NOmjS76wdr6-6" value="" style="line;html=1;strokeWidth=1;align=left;verticalAlign=middle;spacingTop=-1;spacingLeft=3;spacingRight=3;rotatable=0;labelPosition=right;points=[];portConstraint=eastwest;" vertex="1" parent="pY9i6ke1_NOmjS76wdr6-1">
          <mxGeometry y="26" width="240" height="8" as="geometry" />
        </mxCell>
        <mxCell id="pY9i6ke1_NOmjS76wdr6-7" value="+ main(String[] args): void" style="text;align=left;verticalAlign=top;spacingLeft=4;spacingRight=4;overflow=hidden;rotatable=0;points=[[0,0.5],[1,0.5]];portConstraint=eastwest;" vertex="1" parent="pY9i6ke1_NOmjS76wdr6-1">
          <mxGeometry y="34" width="240" height="26" as="geometry" />
        </mxCell>
        <mxCell id="pY9i6ke1_NOmjS76wdr6-29" value="" style="endArrow=block;dashed=1;endFill=0;endSize=12;html=1;rounded=0;entryX=0.368;entryY=0.009;entryDx=0;entryDy=0;entryPerimeter=0;" edge="1" parent="1" target="pUdPXJo74rfz9XQYsabY-41">
          <mxGeometry width="160" relative="1" as="geometry">
            <mxPoint x="858" y="129" as="sourcePoint" />
            <mxPoint x="1049" y="238" as="targetPoint" />
          </mxGeometry>
        </mxCell>
        <mxCell id="pY9i6ke1_NOmjS76wdr6-33" value="1..*" style="text;strokeColor=none;fillColor=none;align=left;verticalAlign=middle;spacingLeft=4;spacingRight=4;overflow=hidden;points=[[0,0.5],[1,0.5]];portConstraint=eastwest;rotatable=0;whiteSpace=wrap;html=1;" vertex="1" parent="1">
          <mxGeometry x="586" y="453" width="80" height="30" as="geometry" />
        </mxCell>
        <mxCell id="pY9i6ke1_NOmjS76wdr6-34" value="" style="endArrow=diamondThin;endFill=0;endSize=24;html=1;rounded=0;entryX=0.183;entryY=0.996;entryDx=0;entryDy=0;entryPerimeter=0;exitX=1;exitY=0.5;exitDx=0;exitDy=0;" edge="1" parent="1" source="pUdPXJo74rfz9XQYsabY-15">
          <mxGeometry width="160" relative="1" as="geometry">
            <mxPoint x="514.81" y="412.998513193509" as="sourcePoint" />
            <mxPoint x="715.9970000000001" y="447.26599999999996" as="targetPoint" />
          </mxGeometry>
        </mxCell>
        <mxCell id="pY9i6ke1_NOmjS76wdr6-35" value="1" style="text;strokeColor=none;fillColor=none;align=left;verticalAlign=middle;spacingLeft=4;spacingRight=4;overflow=hidden;points=[[0,0.5],[1,0.5]];portConstraint=eastwest;rotatable=0;whiteSpace=wrap;html=1;" vertex="1" parent="1">
          <mxGeometry x="672" y="419" width="80" height="30" as="geometry" />
        </mxCell>
        <mxCell id="pY9i6ke1_NOmjS76wdr6-36" value="" style="html=1;verticalAlign=bottom;endArrow=block;curved=0;rounded=0;exitX=0;exitY=0.5;exitDx=0;exitDy=0;entryX=0.821;entryY=-0.002;entryDx=0;entryDy=0;entryPerimeter=0;" edge="1" parent="1" source="pUdPXJo74rfz9XQYsabY-73" target="pUdPXJo74rfz9XQYsabY-23">
          <mxGeometry width="80" relative="1" as="geometry">
            <mxPoint x="1142.0069999999998" y="766.0020000000002" as="sourcePoint" />
            <mxPoint x="1099.004" y="869.0720000000001" as="targetPoint" />
          </mxGeometry>
        </mxCell>
        <mxCell id="pY9i6ke1_NOmjS76wdr6-37" value="" style="endArrow=diamondThin;endFill=0;endSize=24;html=1;rounded=0;exitX=0.5;exitY=0;exitDx=0;exitDy=0;" edge="1" parent="1" source="pUdPXJo74rfz9XQYsabY-23">
          <mxGeometry width="160" relative="1" as="geometry">
            <mxPoint x="921" y="759" as="sourcePoint" />
            <mxPoint x="963" y="470" as="targetPoint" />
          </mxGeometry>
        </mxCell>
        <mxCell id="pY9i6ke1_NOmjS76wdr6-38" value="" style="html=1;verticalAlign=bottom;endArrow=block;curved=0;rounded=0;entryX=1;entryY=0.5;entryDx=0;entryDy=0;exitX=0.054;exitY=1.01;exitDx=0;exitDy=0;exitPerimeter=0;" edge="1" parent="1" source="pUdPXJo74rfz9XQYsabY-53" target="pUdPXJo74rfz9XQYsabY-16">
          <mxGeometry width="80" relative="1" as="geometry">
            <mxPoint x="734" y="477" as="sourcePoint" />
            <mxPoint x="859" y="587" as="targetPoint" />
          </mxGeometry>
        </mxCell>
        <mxCell id="pY9i6ke1_NOmjS76wdr6-39" value="" style="html=1;verticalAlign=bottom;endArrow=block;curved=0;rounded=0;exitX=1;exitY=0.5;exitDx=0;exitDy=0;entryX=0;entryY=0.5;entryDx=0;entryDy=0;" edge="1" parent="1" source="pUdPXJo74rfz9XQYsabY-53" target="pUdPXJo74rfz9XQYsabY-67">
          <mxGeometry width="80" relative="1" as="geometry">
            <mxPoint x="1071.0069999999998" y="472.0020000000002" as="sourcePoint" />
            <mxPoint x="959" y="568" as="targetPoint" />
          </mxGeometry>
        </mxCell>
        <mxCell id="pY9i6ke1_NOmjS76wdr6-40" value="1" style="text;strokeColor=none;fillColor=none;align=left;verticalAlign=middle;spacingLeft=4;spacingRight=4;overflow=hidden;points=[[0,0.5],[1,0.5]];portConstraint=eastwest;rotatable=0;whiteSpace=wrap;html=1;" vertex="1" parent="1">
          <mxGeometry x="595" y="504" width="80" height="30" as="geometry" />
        </mxCell>
        <mxCell id="pY9i6ke1_NOmjS76wdr6-41" value="1" style="text;strokeColor=none;fillColor=none;align=left;verticalAlign=middle;spacingLeft=4;spacingRight=4;overflow=hidden;points=[[0,0.5],[1,0.5]];portConstraint=eastwest;rotatable=0;whiteSpace=wrap;html=1;" vertex="1" parent="1">
          <mxGeometry x="878" y="472" width="80" height="30" as="geometry" />
        </mxCell>
        <mxCell id="pY9i6ke1_NOmjS76wdr6-42" value="1" style="text;strokeColor=none;fillColor=none;align=left;verticalAlign=middle;spacingLeft=4;spacingRight=4;overflow=hidden;points=[[0,0.5],[1,0.5]];portConstraint=eastwest;rotatable=0;whiteSpace=wrap;html=1;" vertex="1" parent="1">
          <mxGeometry x="946" y="483" width="80" height="30" as="geometry" />
        </mxCell>
        <mxCell id="pY9i6ke1_NOmjS76wdr6-43" value="1..*" style="text;strokeColor=none;fillColor=none;align=left;verticalAlign=middle;spacingLeft=4;spacingRight=4;overflow=hidden;points=[[0,0.5],[1,0.5]];portConstraint=eastwest;rotatable=0;whiteSpace=wrap;html=1;" vertex="1" parent="1">
          <mxGeometry x="1027" y="532" width="27" height="30" as="geometry" />
        </mxCell>
        <mxCell id="pY9i6ke1_NOmjS76wdr6-46" value="1" style="text;strokeColor=none;fillColor=none;align=left;verticalAlign=middle;spacingLeft=4;spacingRight=4;overflow=hidden;points=[[0,0.5],[1,0.5]];portConstraint=eastwest;rotatable=0;whiteSpace=wrap;html=1;" vertex="1" parent="1">
          <mxGeometry x="1108" y="449" width="80" height="30" as="geometry" />
        </mxCell>
        <mxCell id="pY9i6ke1_NOmjS76wdr6-47" value="1" style="text;strokeColor=none;fillColor=none;align=left;verticalAlign=middle;spacingLeft=4;spacingRight=4;overflow=hidden;points=[[0,0.5],[1,0.5]];portConstraint=eastwest;rotatable=0;whiteSpace=wrap;html=1;" vertex="1" parent="1">
          <mxGeometry x="1222" y="404" width="32" height="30" as="geometry" />
        </mxCell>
        <mxCell id="pY9i6ke1_NOmjS76wdr6-48" value="1" style="text;strokeColor=none;fillColor=none;align=left;verticalAlign=middle;spacingLeft=4;spacingRight=4;overflow=hidden;points=[[0,0.5],[1,0.5]];portConstraint=eastwest;rotatable=0;whiteSpace=wrap;html=1;" vertex="1" parent="1">
          <mxGeometry x="1217" y="468" width="32" height="30" as="geometry" />
        </mxCell>
        <mxCell id="pY9i6ke1_NOmjS76wdr6-49" value="1..*" style="text;strokeColor=none;fillColor=none;align=left;verticalAlign=middle;spacingLeft=4;spacingRight=4;overflow=hidden;points=[[0,0.5],[1,0.5]];portConstraint=eastwest;rotatable=0;whiteSpace=wrap;html=1;" vertex="1" parent="1">
          <mxGeometry x="941" y="542" width="27" height="30" as="geometry" />
        </mxCell>
      </root>
    </mxGraphModel>
  </diagram>
</mxfile>
